<svg width="14" height="14" viewBox="0 0 14 14" fill="none" xmlns="http://www.w3.org/2000/svg">
<g clip-path="url(#clip0_14_35)">
<path d="M13.486 0.514472C13.2768 0.302797 13.0166 0.148638 12.7305 0.0668904C12.4444 -0.0148572 12.142 -0.0214305 11.8526 0.0478058L2.51929 2.01364C1.98179 2.08735 1.47555 2.30967 1.05758 2.65555C0.639599 3.00143 0.32649 3.45713 0.153509 3.97134C-0.0194715 4.48556 -0.0454529 5.03785 0.0784908 5.56603C0.202434 6.09421 0.47138 6.5773 0.85504 6.96089L1.85721 7.96247C1.91145 8.0167 1.95446 8.08109 1.98379 8.15195C2.01312 8.22282 2.02818 8.29878 2.02812 8.37547V10.2235C2.02941 10.4833 2.08923 10.7395 2.20312 10.9731L2.19846 10.9771L2.21362 10.9923C2.38455 11.336 2.66371 11.6139 3.00812 11.7833L3.02329 11.7985L3.02737 11.7938C3.26092 11.9077 3.51712 11.9675 3.77696 11.9688H5.62496C5.77957 11.9687 5.92791 12.0299 6.03737 12.1391L7.03896 13.1407C7.3076 13.4123 7.62734 13.6281 7.97975 13.7756C8.33216 13.923 8.71027 13.9993 9.09229 14C9.41065 13.9996 9.72683 13.9476 10.0285 13.846C10.5381 13.6787 10.9907 13.3723 11.3353 12.9615C11.68 12.5506 11.903 12.0516 11.9792 11.5208L13.948 2.16706C14.0208 1.87518 14.0165 1.56938 13.9355 1.27967C13.8545 0.989951 13.6996 0.726263 13.486 0.514472ZM2.68321 7.13881L1.68046 6.13722C1.44696 5.90935 1.28331 5.6196 1.20871 5.30198C1.13411 4.98436 1.15165 4.65205 1.25929 4.34406C1.36365 4.02808 1.55656 3.74872 1.81509 3.53921C2.07362 3.3297 2.38688 3.19885 2.71762 3.16222L11.9582 1.21681L3.19362 9.98256V8.37547C3.19451 8.14584 3.14985 7.9183 3.06224 7.70603C2.97463 7.49376 2.8458 7.30097 2.68321 7.13881ZM10.833 11.3213C10.7882 11.6435 10.6545 11.9468 10.4468 12.1973C10.2392 12.4477 9.96593 12.6353 9.65762 12.739C9.3493 12.8427 9.01818 12.8585 8.70142 12.7844C8.38466 12.7104 8.0948 12.5496 7.86437 12.32L6.86104 11.3166C6.69909 11.1538 6.50646 11.0247 6.29429 10.9368C6.08212 10.8489 5.85462 10.8039 5.62496 10.8045H4.01787L12.7836 2.04164L10.833 11.3213Z" fill="white"/>
</g>
<defs>
<clipPath id="clip0_14_35">
<rect width="14" height="14" fill="white"/>
</clipPath>
</defs>
</svg>
