<svg width="25" height="25" viewBox="0 0 25 25" fill="none" xmlns="http://www.w3.org/2000/svg">
<g clip-path="url(#clip0_34_31)">
<path d="M19.7917 0H5.20833C3.82751 0.00165402 2.50371 0.550919 1.52731 1.52731C0.550919 2.50371 0.00165402 3.82751 0 5.20833L0 19.7917C0.00165402 21.1725 0.550919 22.4963 1.52731 23.4727C2.50371 24.4491 3.82751 24.9983 5.20833 25H19.7917C21.1725 24.9983 22.4963 24.4491 23.4727 23.4727C24.4491 22.4963 24.9983 21.1725 25 19.7917V5.20833C24.9983 3.82751 24.4491 2.50371 23.4727 1.52731C22.4963 0.550919 21.1725 0.00165402 19.7917 0ZM22.9167 19.7917C22.9167 20.6205 22.5874 21.4153 22.0014 22.0014C21.4153 22.5874 20.6205 22.9167 19.7917 22.9167H5.20833C4.37953 22.9167 3.58468 22.5874 2.99862 22.0014C2.41257 21.4153 2.08333 20.6205 2.08333 19.7917V5.20833C2.08333 4.37953 2.41257 3.58468 2.99862 2.99862C3.58468 2.41257 4.37953 2.08333 5.20833 2.08333H19.7917C20.6205 2.08333 21.4153 2.41257 22.0014 2.99862C22.5874 3.58468 22.9167 4.37953 22.9167 5.20833V19.7917Z" fill="#606369"/>
<path d="M9.72189 16.5823L5.6396 12.5C5.44426 12.3047 5.17935 12.195 4.90314 12.195C4.62693 12.195 4.36202 12.3047 4.16668 12.5C3.9714 12.6953 3.86169 12.9602 3.86169 13.2365C3.86169 13.5127 3.9714 13.7776 4.16668 13.9729L8.24897 18.0552C8.44244 18.2487 8.67214 18.4023 8.92496 18.507C9.17777 18.6118 9.44875 18.6657 9.72241 18.6657C9.99607 18.6657 10.267 18.6118 10.5199 18.507C10.7727 18.4023 11.0024 18.2487 11.1958 18.0552L20.8333 8.4177C21.0286 8.22236 21.1383 7.95746 21.1383 7.68125C21.1383 7.40503 21.0286 7.14013 20.8333 6.94479C20.638 6.7495 20.3731 6.6398 20.0969 6.6398C19.8207 6.6398 19.5558 6.7495 19.3604 6.94479L9.72189 16.5823Z" fill="#606369"/>
</g>
<defs>
<clipPath id="clip0_34_31">
<rect width="25" height="25" fill="white"/>
</clipPath>
</defs>
</svg>
