<svg width="24" height="24" viewBox="0 0 24 24" fill="none" xmlns="http://www.w3.org/2000/svg">
<path d="M18.5 8C18.5 9.10457 19.3954 10 20.5 10C21.6046 10 22.5 9.10457 22.5 8C22.5 6.89543 21.6046 6 20.5 6C19.3954 6 18.5 6.89543 18.5 8Z" fill="#B2B2B2"/>
<path d="M10.5 8C10.5 9.10457 11.3954 10 12.5 10C13.6046 10 14.5 9.10457 14.5 8C14.5 6.89543 13.6046 6 12.5 6C11.3954 6 10.5 6.89543 10.5 8Z" fill="#B2B2B2"/>
<path d="M2.5 8C2.5 9.10457 3.39543 10 4.5 10C5.60457 10 6.5 9.10457 6.5 8C6.5 6.89543 5.60457 6 4.5 6C3.39543 6 2.5 6.89543 2.5 8Z" fill="#B2B2B2"/>
<path d="M18.5 16C18.5 17.1046 19.3954 18 20.5 18C21.6046 18 22.5 17.1046 22.5 16C22.5 14.8954 21.6046 14 20.5 14C19.3954 14 18.5 14.8954 18.5 16Z" fill="#B2B2B2"/>
<path d="M10.5 16C10.5 17.1046 11.3954 18 12.5 18C13.6046 18 14.5 17.1046 14.5 16C14.5 14.8954 13.6046 14 12.5 14C11.3954 14 10.5 14.8954 10.5 16Z" fill="#B2B2B2"/>
<path d="M2.5 16C2.5 17.1046 3.39543 18 4.5 18C5.60457 18 6.5 17.1046 6.5 16C6.5 14.8954 5.60457 14 4.5 14C3.39543 14 2.5 14.8954 2.5 16Z" fill="#B2B2B2"/>
</svg>
