<svg width="14" height="14" viewBox="0 0 14 14" fill="none" xmlns="http://www.w3.org/2000/svg">
<g clip-path="url(#clip0_11_22)">
<path d="M13.4873 5.29025L9.06267 0.865082C8.51507 0.319075 7.77331 0.0124664 7.00001 0.0124664C6.2267 0.0124664 5.48495 0.319075 4.93734 0.865082L0.512757 5.29025C0.349672 5.45229 0.220373 5.64509 0.132355 5.85747C0.0443376 6.06986 -0.000647734 6.2976 7.04636e-06 6.5275V12.2541C7.04636e-06 12.7182 0.184382 13.1633 0.51257 13.4915C0.840759 13.8197 1.28588 14.0041 1.75001 14.0041H12.25C12.7141 14.0041 13.1593 13.8197 13.4874 13.4915C13.8156 13.1633 14 12.7182 14 12.2541V6.5275C14.0007 6.2976 13.9557 6.06986 13.8677 5.85747C13.7796 5.64509 13.6503 5.45229 13.4873 5.29025ZM8.75001 12.8374H5.25001V10.5426C5.25001 10.0785 5.43438 9.63333 5.76257 9.30514C6.09076 8.97696 6.53588 8.79258 7.00001 8.79258C7.46414 8.79258 7.90926 8.97696 8.23744 9.30514C8.56563 9.63333 8.75001 10.0785 8.75001 10.5426V12.8374ZM12.8333 12.2541C12.8333 12.4088 12.7719 12.5572 12.6625 12.6666C12.5531 12.776 12.4047 12.8374 12.25 12.8374H9.91667V10.5426C9.91667 9.76903 9.60938 9.02717 9.0624 8.48019C8.51542 7.93321 7.77356 7.62591 7.00001 7.62591C6.22646 7.62591 5.48459 7.93321 4.93761 8.48019C4.39063 9.02717 4.08334 9.76903 4.08334 10.5426V12.8374H1.75001C1.5953 12.8374 1.44692 12.776 1.33753 12.6666C1.22813 12.5572 1.16667 12.4088 1.16667 12.2541V6.5275C1.16721 6.3729 1.22862 6.22474 1.33759 6.11508L5.76217 1.69166C6.091 1.36437 6.53606 1.18063 7.00001 1.18063C7.46395 1.18063 7.90902 1.36437 8.23784 1.69166L12.6624 6.11683C12.771 6.22606 12.8323 6.37351 12.8333 6.5275V12.2541Z" fill="white"/>
</g>
<defs>
<clipPath id="clip0_11_22">
<rect width="14" height="14" fill="white"/>
</clipPath>
</defs>
</svg>
