<svg width="22" height="22" viewBox="0 0 22 22" fill="none" xmlns="http://www.w3.org/2000/svg">
<g clip-path="url(#clip0_44_2)">
<path d="M17.4167 0H4.58333C3.3682 0.00145554 2.20326 0.484808 1.34403 1.34403C0.484808 2.20326 0.00145554 3.3682 0 4.58333L0 17.4167C0.00145554 18.6318 0.484808 19.7967 1.34403 20.656C2.20326 21.5152 3.3682 21.9985 4.58333 22H17.4167C18.6318 21.9985 19.7967 21.5152 20.656 20.656C21.5152 19.7967 21.9985 18.6318 22 17.4167V4.58333C21.9985 3.3682 21.5152 2.20326 20.656 1.34403C19.7967 0.484808 18.6318 0.00145554 17.4167 0ZM4.58333 1.83333H17.4167C18.146 1.83333 18.8455 2.12306 19.3612 2.63879C19.8769 3.15451 20.1667 3.85399 20.1667 4.58333V17.4167C20.1651 17.825 20.0711 18.2277 19.8917 18.5946L11.4922 10.1952C11.0666 9.76944 10.5613 9.43172 10.0052 9.20131C9.44901 8.9709 8.85291 8.85231 8.25092 8.85231C7.64892 8.85231 7.05283 8.9709 6.49667 9.20131C5.94052 9.43172 5.4352 9.76944 5.00958 10.1952L1.83333 13.3705V4.58333C1.83333 3.85399 2.12306 3.15451 2.63879 2.63879C3.15451 2.12306 3.85399 1.83333 4.58333 1.83333ZM4.58333 20.1667C3.85399 20.1667 3.15451 19.8769 2.63879 19.3612C2.12306 18.8455 1.83333 18.146 1.83333 17.4167V15.9628L6.30483 11.4913C6.56022 11.2358 6.86345 11.0331 7.19721 10.8948C7.53097 10.7564 7.88872 10.6853 8.25 10.6853C8.61128 10.6853 8.96903 10.7564 9.30279 10.8948C9.63655 11.0331 9.93978 11.2358 10.1952 11.4913L18.5946 19.8917C18.2277 20.0711 17.825 20.1651 17.4167 20.1667H4.58333Z" fill="#606369"/>
<path d="M14.6667 9.62501C15.3012 9.62501 15.9215 9.43685 16.4491 9.08431C16.9767 8.73177 17.388 8.2307 17.6308 7.64445C17.8736 7.05821 17.9372 6.41312 17.8134 5.79076C17.6896 5.16841 17.384 4.59674 16.9353 4.14804C16.4866 3.69935 15.9149 3.39379 15.2926 3.26999C14.6702 3.1462 14.0251 3.20973 13.4389 3.45256C12.8527 3.6954 12.3516 4.10662 11.999 4.63422C11.6465 5.16183 11.4583 5.78213 11.4583 6.41668C11.4583 7.26758 11.7964 8.08363 12.398 8.68531C12.9997 9.28699 13.8158 9.62501 14.6667 9.62501ZM14.6667 5.04168C14.9386 5.04168 15.2045 5.12232 15.4306 5.27341C15.6567 5.42449 15.8329 5.63924 15.937 5.89049C16.0411 6.14174 16.0683 6.4182 16.0153 6.68493C15.9622 6.95165 15.8312 7.19665 15.6389 7.38895C15.4467 7.58125 15.2016 7.7122 14.9349 7.76526C14.6682 7.81831 14.3917 7.79108 14.1405 7.68701C13.8892 7.58294 13.6745 7.40671 13.5234 7.18059C13.3723 6.95447 13.2917 6.68863 13.2917 6.41668C13.2917 6.05201 13.4365 5.70227 13.6944 5.44441C13.9523 5.18654 14.302 5.04168 14.6667 5.04168Z" fill="#606369"/>
</g>
<defs>
<clipPath id="clip0_44_2">
<rect width="22" height="22" fill="white"/>
</clipPath>
</defs>
</svg>
