<svg width="25" height="25" viewBox="0 0 25 25" fill="none" xmlns="http://www.w3.org/2000/svg">
<g clip-path="url(#clip0_34_36)">
<path d="M1.04167 6.24999H23.9583C24.2346 6.24999 24.4996 6.14024 24.6949 5.94489C24.8903 5.74954 25 5.48459 25 5.20832C25 4.93206 24.8903 4.6671 24.6949 4.47175C24.4996 4.2764 24.2346 4.16666 23.9583 4.16666H1.04167C0.765399 4.16666 0.500447 4.2764 0.305097 4.47175C0.109747 4.6671 0 4.93206 0 5.20832C0 5.48459 0.109747 5.74954 0.305097 5.94489C0.500447 6.14024 0.765399 6.24999 1.04167 6.24999Z" fill="#606369"/>
<path d="M1.04167 11.4583H15.625C15.9013 11.4583 16.1662 11.3486 16.3616 11.1532C16.5569 10.9579 16.6667 10.6929 16.6667 10.4167C16.6667 10.1404 16.5569 9.87545 16.3616 9.6801C16.1662 9.48475 15.9013 9.375 15.625 9.375H1.04167C0.7654 9.375 0.500448 9.48475 0.305097 9.6801C0.109747 9.87545 0 10.1404 0 10.4167C0 10.6929 0.109747 10.9579 0.305097 11.1532C0.500448 11.3486 0.7654 11.4583 1.04167 11.4583Z" fill="#606369"/>
<path d="M15.625 19.7917H1.04167C0.7654 19.7917 0.500448 19.9014 0.305097 20.0968C0.109747 20.2921 0 20.5571 0 20.8333C0 21.1096 0.109747 21.3745 0.305097 21.5699C0.500448 21.7652 0.7654 21.875 1.04167 21.875H15.625C15.9013 21.875 16.1662 21.7652 16.3616 21.5699C16.5569 21.3745 16.6667 21.1096 16.6667 20.8333C16.6667 20.5571 16.5569 20.2921 16.3616 20.0968C16.1662 19.9014 15.9013 19.7917 15.625 19.7917Z" fill="#606369"/>
<path d="M23.9583 14.5833H1.04167C0.765399 14.5833 0.500447 14.6931 0.305097 14.8884C0.109747 15.0838 0 15.3487 0 15.625C0 15.9013 0.109747 16.1662 0.305097 16.3616C0.500447 16.5569 0.765399 16.6667 1.04167 16.6667H23.9583C24.2346 16.6667 24.4996 16.5569 24.6949 16.3616C24.8903 16.1662 25 15.9013 25 15.625C25 15.3487 24.8903 15.0838 24.6949 14.8884C24.4996 14.6931 24.2346 14.5833 23.9583 14.5833Z" fill="#606369"/>
</g>
<defs>
<clipPath id="clip0_34_36">
<rect width="25" height="25" fill="white"/>
</clipPath>
</defs>
</svg>
