<svg width="25" height="25" viewBox="0 0 25 25" fill="none" xmlns="http://www.w3.org/2000/svg">
<g clip-path="url(#clip0_34_34)">
<path d="M12.5 0C5.60729 0 0 5.60729 0 12.5C0 19.3927 5.60729 25 12.5 25C19.3927 25 25 19.3927 25 12.5C25 5.60729 19.3927 0 12.5 0ZM12.5 22.9167C6.75625 22.9167 2.08333 18.2437 2.08333 12.5C2.08333 6.75625 6.75625 2.08333 12.5 2.08333C18.2437 2.08333 22.9167 6.75625 22.9167 12.5C22.9167 18.2437 18.2437 22.9167 12.5 22.9167ZM16.6667 12.5C16.6667 14.801 14.801 16.6667 12.5 16.6667C10.199 16.6667 8.33333 14.801 8.33333 12.5C8.33333 10.199 10.199 8.33333 12.5 8.33333C14.801 8.33333 16.6667 10.199 16.6667 12.5Z" fill="#606369"/>
</g>
<defs>
<clipPath id="clip0_34_34">
<rect width="25" height="25" fill="white"/>
</clipPath>
</defs>
</svg>
